<svg width="19" height="19" viewBox="0 0 19 19" fill="none" xmlns="http://www.w3.org/2000/svg">
<g id="np_send_6152416_956EF6 2">
<g id="Group">
<path id="Vector" d="M12.9979 6.68629C12.9845 6.66922 12.9771 6.67516 12.9675 6.68258L7.00546 10.6764C6.85331 10.7788 6.6878 10.8552 6.51711 10.9102V12.8554C6.51711 13.0187 6.60468 13.1552 6.75238 13.2243C6.90082 13.2925 7.06187 13.2695 7.18581 13.1634L8.45347 12.0746C8.4082 11.9818 8.37331 11.8809 8.36441 11.7748C8.33992 11.5128 8.43121 11.256 8.61897 11.0719L12.9964 6.71674C12.9964 6.71674 13.0112 6.7019 12.9964 6.68408L12.9979 6.68629Z" fill="#686868"/>
<path id="Vector_2" d="M14.4913 15.2876C14.786 15.1584 14.993 14.8905 15.042 14.5729L16.6154 4.50514C16.6592 4.23128 16.5546 3.9678 16.3364 3.79635C16.1196 3.62565 15.8369 3.58704 15.5823 3.69393L2.60148 9.12375C2.42262 9.19797 2.36769 9.36125 2.37512 9.48891C2.38477 9.61657 2.46047 9.7702 2.64898 9.81919L5.4967 10.5755C5.93904 10.6935 6.41256 10.6133 6.79256 10.3588L12.7546 6.36497C12.8251 6.31747 12.9045 6.29446 12.9809 6.29446C13.0967 6.29446 13.211 6.34567 13.2904 6.44438C13.4255 6.60766 13.4136 6.83551 13.2622 6.98618L8.88481 11.3414C8.78017 11.446 8.72747 11.59 8.74231 11.7384C8.75716 11.8869 8.83509 12.0197 8.95903 12.1014L13.591 15.206C13.859 15.3848 14.1952 15.4153 14.4898 15.2861L14.4913 15.2876Z" fill="#686868"/>
</g>
</g>
</svg>
