<svg width="11" height="11" viewBox="0 0 11 11" fill="none" xmlns="http://www.w3.org/2000/svg">
<g id="np_eye_888692_D7D7D7 1">
<g id="Group">
<path id="Vector" d="M5.49991 3.3844C3.57696 3.3844 2.23056 5.49991 2.23056 5.49991C2.23056 5.49991 3.21133 7.61542 5.49991 7.61542C7.80761 7.61542 8.76927 5.49991 8.76927 5.49991C8.76927 5.49991 7.44235 3.3844 5.49991 3.3844ZM5.49991 6.84594C4.74991 6.84594 4.15388 6.24991 4.15388 5.49991C4.15388 4.74991 4.74991 4.15388 5.49991 4.15388C6.24991 4.15388 6.84595 4.74991 6.84595 5.49991C6.84595 6.24991 6.24991 6.84594 5.49991 6.84594Z" fill="white"/>
<path id="Vector_2" d="M6.07685 5.4999C6.07685 5.81864 5.81867 6.07682 5.49993 6.07682C5.18118 6.07682 4.923 5.81864 4.923 5.4999C4.923 5.18115 5.18118 4.92297 5.49993 4.92297C5.81867 4.92297 6.07685 5.18115 6.07685 5.4999Z" fill="white"/>
</g>
</g>
</svg>
