<svg width="32" height="32" viewBox="0 0 32 32" fill="none" xmlns="http://www.w3.org/2000/svg">
<g id="Group 12">
<rect id="Rectangle 15" width="32" height="32" rx="16" fill="#1C1C1C"/>
<g id="Group">
<path id="Vector" d="M20.05 17.2H19.75V12.55C19.75 10.75 18.1 9.25 16 9.25C13.9 9.25 12.25 10.75 12.25 12.55V17.2H11.95C11.2 17.2 10.525 17.8 10.525 18.475C10.525 19.15 11.125 19.75 11.95 19.75H20.1249C20.8749 19.75 21.5499 19.15 21.5499 18.475C21.5499 17.8 20.875 17.2 20.05 17.2Z" fill="white"/>
<path id="Vector_2" d="M15.9251 22.75C16.8251 22.825 17.6501 22.225 17.8001 21.4C17.8001 21.25 17.7251 21.1 17.5001 21.1H14.5001C14.3501 21.1 14.2001 21.25 14.2001 21.4C14.4251 22.15 15.1001 22.75 15.9251 22.75Z" fill="white"/>
</g>
<circle id="Ellipse 1" cx="28.5" cy="6.5" r="3.5" fill="#FF0000"/>
</g>
</svg>
