<svg width="12" height="12" viewBox="0 0 12 12" fill="none" xmlns="http://www.w3.org/2000/svg">
<g id="Group">
<path id="Vector" d="M3.59808 9.94224C3.28683 9.9249 2.97324 9.93568 2.66058 9.93427C2.26215 9.93239 2.05402 9.72333 2.05402 9.32208V2.664C2.05402 2.27166 2.26215 2.06119 2.65402 2.05837C2.95402 2.05649 3.25402 2.0654 3.55402 2.05462V2.05509C4.11512 2.03821 4.55808 1.57275 4.54683 1.01165C4.53933 0.458525 4.09308 0.0141527 3.52776 0.00384466C3.19026 -0.00178035 2.85276 -0.00271791 2.51526 0.00384466C1.33776 0.0319703 0.321064 0.862589 0.0623436 2.00544C0.0389064 2.11044 0.0206244 2.21638 0 2.32185V9.67041C0.00890628 9.71072 0.0206256 9.7501 0.02625 9.79135C0.182814 10.9192 1.13203 11.8586 2.26593 11.9687C2.71124 12.0119 3.16499 12.0034 3.61401 11.9866C3.98338 11.9725 4.25432 11.7625 4.4287 11.4423C4.77933 10.7973 4.32934 9.98352 3.59808 9.94224Z" fill="#686868"/>
<path id="Vector_2" d="M8.51113 2.26459C8.31941 2.07286 8.08269 1.98146 7.81269 1.97725C7.39692 1.9735 7.01863 2.21818 6.85176 2.59881C6.68489 2.98084 6.76973 3.42568 7.06457 3.72007C7.49629 4.16023 7.93176 4.59991 8.36633 5.03815C8.39633 5.06862 8.42445 5.10987 8.47039 5.15674H8.24632C6.86356 5.15674 5.47888 5.15111 4.09552 5.15393C3.40646 5.15533 2.92365 5.75674 3.07552 6.41537C3.1824 6.87756 3.6099 7.20006 4.11427 7.20006C5.51023 7.20006 6.90619 7.19537 8.30251 7.19537H8.44641C8.45719 7.21506 8.46891 7.23428 8.48251 7.25256C8.44266 7.276 8.39532 7.29193 8.36532 7.32287C7.95095 7.7335 7.53563 8.14318 7.12788 8.56127C6.72944 8.96861 6.73319 9.59627 7.12319 9.99095C7.52632 10.3992 8.16335 10.4194 8.57255 10.0144C9.62302 8.97376 10.6688 7.92843 11.709 6.87747C11.896 6.68997 12.0006 6.43637 12.0001 6.172C11.9996 5.90763 11.8937 5.65403 11.7062 5.46747C10.6449 4.39591 9.57985 3.32863 8.51113 2.26459Z" fill="#686868"/>
</g>
</svg>
