<svg width="11" height="11" viewBox="0 0 11 11" fill="none" xmlns="http://www.w3.org/2000/svg">
<g id="np_added_1936615_303030 1" clip-path="url(#clip0_3_294)">
<g id="Group">
<path id="Vector" fill-rule="evenodd" clip-rule="evenodd" d="M0.555165 5.80294H2.42219V3.98618C2.42219 3.2295 3.5828 3.2295 3.5828 3.98618V5.80294H5.39956C6.15624 5.80294 6.15624 6.96355 5.39956 6.96355H3.5828V8.78031C3.5828 9.58769 2.42219 9.58769 2.42219 8.78031V6.96355H0.555165C-0.201514 6.96355 -0.201514 5.80294 0.555165 5.80294Z" fill="white"/>
<path id="Vector_2" fill-rule="evenodd" clip-rule="evenodd" d="M5.60099 4.03644H7.41775V2.16941C7.41775 1.41273 8.57836 1.41273 8.57836 2.16941V4.03644H10.3951C11.2025 4.03644 11.2025 5.19705 10.3951 5.19705H8.57836V7.01381C8.57836 7.77049 7.41775 7.77049 7.41775 7.01381V5.19705H5.60099C4.84431 5.19705 4.84431 4.03644 5.60099 4.03644Z" fill="white"/>
</g>
</g>
<defs>
<clipPath id="clip0_3_294">
<rect width="11" height="11" fill="white"/>
</clipPath>
</defs>
</svg>
