<svg width="11" height="11" viewBox="0 0 11 11" fill="none" xmlns="http://www.w3.org/2000/svg">
<g id="np_warning_4718327_FFFFFF 1">
<path id="Vector" d="M10.1613 8.14001L6.46944 1.74285C6.27049 1.39523 5.90053 1.18082 5.50006 1.18082C5.0996 1.18082 4.72963 1.39523 4.53069 1.74285L0.838867 8.14001C0.64035 8.48634 0.641208 8.91216 0.841015 9.25761C1.04082 9.60308 1.40907 9.8162 1.80825 9.81749H9.192C9.59117 9.8162 9.95942 9.60308 10.1592 9.25761C10.359 8.91215 10.3599 8.48632 10.1614 8.14001H10.1613ZM9.56658 8.91344C9.49095 9.0488 9.347 9.13216 9.19189 9.13001H1.80814C1.65302 9.13216 1.50907 9.0488 1.43346 8.91344C1.3544 8.7811 1.3544 8.6161 1.43346 8.48376L5.1288 2.0866C5.20443 1.95253 5.34623 1.8696 5.50005 1.8696C5.65388 1.8696 5.79568 1.95253 5.8713 2.0866L9.56664 8.48376C9.6457 8.6161 9.64564 8.7811 9.56658 8.91344ZM5.15624 6.65503V3.75037C5.15624 3.56045 5.31006 3.40662 5.49999 3.40662C5.68991 3.40662 5.84374 3.56045 5.84374 3.75037V6.65503C5.84374 6.84496 5.68991 6.99878 5.49999 6.99878C5.31006 6.99878 5.15624 6.84496 5.15624 6.65503ZM6.02592 7.92685C6.02592 8.13955 5.89787 8.33119 5.70108 8.41283C5.5047 8.49404 5.2787 8.44936 5.12831 8.29853C4.97748 8.14814 4.9328 7.92212 5.014 7.72576C5.09565 7.52896 5.28729 7.40092 5.49999 7.40092C5.78959 7.40264 6.0242 7.63725 6.02592 7.92685Z" fill="white"/>
</g>
</svg>
